<mxfile host="app.diagrams.net" modified="2024-04-22T10:29:17.539Z" agent="Mozilla/5.0 (Macintosh; Intel Mac OS X 10_15_7) AppleWebKit/537.36 (KHTML, like Gecko) Chrome/123.0.0.0 Safari/537.36 Edg/123.0.0.0" version="24.2.2" etag="IhI8VTZ-QK1qh9LF9dSi" type="github">
  <diagram name="第 1 页" id="_L-r1Zg0NLN0VIuXtBzd">
    <mxGraphModel>
      <root>
        <mxCell id="0" />
        <mxCell id="1" parent="0" />
      </root>
    </mxGraphModel>
  </diagram>
</mxfile>
